PathFileType	4	(X/Y/Z)	C:\Users\Basilio\Documents\Thesis Gigler\squatting_fais\c3dfiles\041\SJ_pre4\markers_experimental.trc
DataRate	CameraRate	NumFrames	NumMarkers	Units	OrigDataRate	OrigDataStartFrame	OrigNumFrames
200.000000	200.000000	4	62	mm	200.000000	1115	1785
Frame#	Time	FHD			LBHD			RBHD			C7			T10			CLAV			LSHO			LUUPA			LMUPA			LDUPA			LLEP			LMEP			LRAD			LUL			LRFIN			RSHO			RUPA1			RMUPA			RDUPA			RLEP			RMEP			RRAD			RUL			RUFIN			LASI			RASI			USACR			LSACR			RSACR			LTHI1			LTHI2			LTHI3			LTHI4			LLFC			LMFC			LTIB1			LTIB2			LTIB3			LTIB4			LLMAL			LMMAL			LHEE			LMT1			LMT2			LMT5			RTHI			RTHI2			RTHI3			RTHI4			RLFC			RMFC			RTIB1			RTIB2			RTIB3			RTIB4			RLMAL			RMMAL			RHEE			RMT1			RMT2			RMT5			*61			
		X1	Y1	Z1	X2	Y2	Z2	X3	Y3	Z3	X4	Y4	Z4	X5	Y5	Z5	X6	Y6	Z6	X7	Y7	Z7	X8	Y8	Z8	X9	Y9	Z9	X10	Y10	Z10	X11	Y11	Z11	X12	Y12	Z12	X13	Y13	Z13	X14	Y14	Z14	X15	Y15	Z15	X16	Y16	Z16	X17	Y17	Z17	X18	Y18	Z18	X19	Y19	Z19	X20	Y20	Z20	X21	Y21	Z21	X22	Y22	Z22	X23	Y23	Z23	X24	Y24	Z24	X25	Y25	Z25	X26	Y26	Z26	X27	Y27	Z27	X28	Y28	Z28	X29	Y29	Z29	X30	Y30	Z30	X31	Y31	Z31	X32	Y32	Z32	X33	Y33	Z33	X34	Y34	Z34	X35	Y35	Z35	X36	Y36	Z36	X37	Y37	Z37	X38	Y38	Z38	X39	Y39	Z39	X40	Y40	Z40	X41	Y41	Z41	X42	Y42	Z42	X43	Y43	Z43	X44	Y44	Z44	X45	Y45	Z45	X46	Y46	Z46	X47	Y47	Z47	X48	Y48	Z48	X49	Y49	Z49	X50	Y50	Z50	X51	Y51	Z51	X52	Y52	Z52	X53	Y53	Z53	X54	Y54	Z54	X55	Y55	Z55	X56	Y56	Z56	X57	Y57	Z57	X58	Y58	Z58	X59	Y59	Z59	X60	Y60	Z60	X61	Y61	Z61	X62	Y62	Z62	

1116	5.575	42.63675689697266	1218.905883789063	-924.566589355469	-138.0161743164063	1169.49658203125	-1003.9423828125	-119.7762832641602	1170.9140625	-850.3555297851565	-202.0248260498047	1091.160766601563	-932.765075683594	-435.020477294922	898.5632324218752	-926.5559082031252	-103.4363708496094	946.449401855469	-936.9651489257815	-132.8843536376953	1033.940551757813	-1102.419921875	-256.6840209960938	983.084899902344	-1248.480102539063	-276.7423706054688	938.5859375000002	-1250.242431640625	-309.7099304199219	967.421569824219	-1291.731689453125	-354.0281982421876	947.324401855469	-1317.11328125	-421.4582519531251	972.565612792969	-1258.640502929688	-453.9714965820314	777.6326293945315	-1133.31640625	-471.7997436523439	729.2243652343751	-1189.188232421875	-427.4643859863282	734.6608276367189	-1094.701538085938	-104.8907470703125	1019.886962890625	-770.4650878906252	-198.0574493408204	934.822448730469	-585.8809814453126	-194.0496673583985	886.5679321289065	-602.4343261718751	-225.4183959960938	876.7012939453127	-554.0673217773439	-257.8691101074219	839.4991455078127	-538.5058593750001	-332.9642333984376	893.725769042969	-556.0180053710939	-452.0423583984376	761.2878417968751	-698.7276611328126	-427.4969177246095	742.8680419921876	-756.0749511718751	-442.1622924804689	692.1311035156251	-663.8124389648439	-411.2516174316407	665.0374145507814	-1022.201965332031	-415.900848388672	683.4941406250001	-818.443298339844	-537.3263549804689	823.0122070312502	-927.8757324218752	-568.2749023437501	812.4883422851565	-954.8946533203127	-567.3998413085939	810.6662597656252	-898.8147583007815	-488.0213317871095	580.8501586914064	-1140.76806640625	-403.6468200683595	574.5296630859376	-1154.220703125	-378.0196838378907	612.7505493164064	-1140.82763671875	-372.4898986816407	523.0252685546876	-1160.991333007813	-220.8424987792969	449.4023437500001	-1176.920166015625	-197.7001342773438	419.4038391113282	-1072.0869140625	-252.3007354736329	265.1892089843751	-1142.907592773438	-323.5707397460938	256.2779235839844	-1202.568359375	-289.6112365722657	237.2396392822266	-1179.67431640625	-322.5026855468751	162.8621368408203	-1151.919799804688	-420.4382324218751	102.9459381103516	-1193.378540039063	-378.5351257324219	101.4979095458985	-1113.1826171875	-484.9234008789064	55.03750610351564	-1160.302490234375	-267.0195922851563	58.78572845458986	-1142.484741210938	-263.0191955566407	57.74412155151369	-1187.7734375	-304.5320434570313	35.64509963989259	-1242.9267578125	-428.8214721679689	554.4412841796876	-711.4848632812501	-362.3957824707032	558.4981079101564	-705.0328979492189	-344.0296020507813	584.6571655273439	-713.2406005859376	-310.9426574707032	489.2701721191407	-703.5618896484376	-226.0701446533204	430.7083129882814	-697.6827392578126	-203.1887817382813	408.8330078125001	-807.220886230469	-252.0976562500001	275.3031921386719	-700.6372070312501	-363.1808776855469	246.5730743408204	-686.3737182617189	-321.2870483398438	224.1058349609376	-688.2575073242189	-325.1662292480469	171.3789978027344	-714.7145385742189	-428.6002502441407	95.2062225341797	-697.5039672851564	-395.9580993652345	99.06570434570315	-777.4833984375002	-492.8075256347657	51.3842239379883	-743.8477172851564	-274.9288940429688	52.12894439697267	-735.8002319335939	-275.8678894042969	57.3050003051758	-683.7703247070314	-323.1833190917969	37.16991043090821	-636.8162231445314	-4217.054687500001	853.242126464844	-3944.812500000001	
1117	5.58	42.87577056884766	1218.675170898438	-924.5632934570315	-137.874755859375	1169.207641601563	-1003.909057617188	-119.6871871948242	1170.673095703125	-850.2869262695315	-201.8880920410157	1091.00537109375	-932.694274902344	-434.9508361816407	898.5515747070315	-926.491638183594	-103.2099075317383	946.4346923828127	-936.8914184570315	-132.8025665283203	1033.821655273438	-1102.3740234375	-256.5626525878907	983.0288085937502	-1248.44677734375	-276.6380920410157	938.5266113281252	-1250.17431640625	-309.6460876464844	967.3785400390627	-1291.655029296875	-353.9144287109376	947.320739746094	-1317.005859375	-421.3492736816407	972.5244140625002	-1258.557373046875	-454.0032348632814	777.6986083984377	-1133.212280273438	-471.6863098144532	729.2484741210939	-1189.118041992188	-427.5110473632814	734.6730346679689	-1094.60302734375	-104.739730834961	1019.70947265625	-770.3875732421877	-197.8855590820313	934.6301269531252	-585.9158325195314	-194.0370330810547	886.4797973632815	-602.3933715820314	-225.3782958984376	876.538269042969	-554.0634155273439	-257.8052978515626	839.389343261719	-538.4686279296876	-332.8363952636719	893.6204223632815	-555.9584350585939	-452.0733947753907	761.2656860351564	-698.6806030273439	-427.5457763671876	742.8280639648439	-756.0052490234376	-442.160614013672	692.1156616210939	-663.7518920898439	-410.8455505371095	665.6592407226564	-1022.223754882813	-415.8922424316407	683.5422363281251	-818.3948364257815	-537.6739501953126	823.3884277343752	-927.772888183594	-568.2251586914064	812.4554443359377	-954.821228027344	-567.3676757812501	810.636901855469	-898.7456665039065	-487.9737548828126	580.8624877929689	-1140.69287109375	-403.6260070800782	574.5245361328126	-1154.09716796875	-377.9921875000001	612.7148437500001	-1140.741943359375	-372.4463500976563	522.9138183593751	-1160.971557617188	-220.8451385498047	449.4205932617189	-1176.787109375	-197.6820373535157	419.3962402343751	-1072.000854492188	-252.3113708496094	265.2131042480469	-1142.877075195313	-323.8174133300782	256.4331665039063	-1202.58203125	-289.6326293945313	237.2400970458985	-1179.654418945313	-322.4578552246094	162.7901458740235	-1151.929321289063	-420.3988037109376	102.9533233642578	-1193.333862304688	-378.5325012207032	101.5157470703125	-1113.203002929688	-484.9258728027345	55.03363418579103	-1160.300903320313	-267.1553955078126	58.63539123535158	-1142.437377929688	-262.9910888671876	57.71446609497072	-1187.79736328125	-305.2740173339844	35.89665222167969	-1242.900268554688	-428.8164367675782	554.3966064453126	-711.4812011718751	-362.3570251464844	558.4404296875001	-704.9828491210939	-343.9940185546876	584.5983276367189	-713.2577514648439	-310.9411010742188	489.2491149902345	-703.6358032226564	-226.0590362548829	430.6732177734376	-697.6488037109376	-203.1955718994141	408.758514404297	-807.2185668945315	-252.020736694336	275.3129272460938	-700.6696777343751	-363.1650085449219	246.5803527832032	-686.3571166992189	-321.3101196289063	224.1212768554688	-688.2803344726564	-325.2098388671876	171.3872833251953	-714.7650146484376	-428.5921020507814	95.2193069458008	-697.5019531250001	-395.9728088378907	99.02008056640628	-777.5028076171877	-492.8450927734376	51.48894500732423	-743.8303833007814	-274.9251708984376	52.14356613159181	-735.7645874023439	-276.1484375000001	57.70599746704103	-683.6550903320314	-323.1775207519532	37.14982223510743	-636.8482055664064	-4216.813476562501	853.0960693359377	-3944.731933593751	
1118	5.585	43.56989288330079	1218.230102539063	-924.5765380859377	-137.9462890625	1169.23779296875	-1003.920532226563	-119.5250701904297	1170.494750976563	-850.2581787109377	-201.6832885742188	1090.870483398438	-932.652770996094	-434.8143005371095	898.5104980468752	-926.4411621093752	-103.07080078125	946.2512207031252	-936.850280761719	-132.7236633300782	1033.682006835938	-1102.357421875	-256.4713439941407	982.9353027343752	-1248.385498046875	-276.5410461425782	938.4912109375002	-1250.180541992188	-309.5056457519532	967.3647460937502	-1291.634765625	-353.7709045410157	947.270935058594	-1316.975830078125	-421.2337646484376	972.578796386719	-1258.463134765625	-453.9916992187501	777.7218017578127	-1133.121215820313	-471.7271423339845	729.3078002929689	-1189.028076171875	-427.6001586914064	734.6214599609376	-1094.433349609375	-104.5104370117188	1019.407104492188	-770.3923339843752	-197.7346343994141	934.4864501953127	-585.8444213867189	-194.0390014648438	886.2697753906252	-602.3406982421876	-225.2608795166016	876.3461914062502	-554.0195312500001	-257.7452392578126	839.2551879882815	-538.3645629882814	-332.7358703613282	893.572937011719	-555.8944702148439	-452.0305786132814	761.2576904296876	-698.6057128906251	-427.5027465820314	742.8295898437501	-755.9520263671876	-442.1351318359376	692.0895996093751	-663.6650390625001	-410.6344604492189	665.8483276367189	-1022.196899414063	-415.9425354003907	683.4699707031251	-818.3638916015627	-537.5407714843751	823.4433593750002	-927.616394042969	-568.1843872070314	812.4487304687502	-954.7395629882815	-567.3829345703126	810.6045532226565	-898.7460937500002	-487.9720153808595	580.8402099609376	-1140.598876953125	-403.5721740722657	574.4777832031251	-1153.974975585938	-378.0913391113282	612.7443237304689	-1140.73095703125	-372.4642944335938	523.0017089843751	-1160.862915039063	-220.8102264404297	449.3886108398439	-1176.655395507813	-197.6577301025391	419.3792724609376	-1071.9638671875	-252.2904052734376	265.1856079101563	-1142.858154296875	-323.8974304199219	256.4216308593751	-1202.531982421875	-289.6012573242188	237.2417602539063	-1179.627197265625	-322.4611816406251	162.794677734375	-1151.93359375	-420.4420776367189	102.9862365722657	-1193.326904296875	-378.5086059570313	101.4879760742188	-1113.193969726563	-484.9280090332032	55.0338478088379	-1160.298706054688	-267.0960083007813	58.89016342163087	-1142.45947265625	-262.9624633789063	57.81628799438478	-1187.78955078125	-304.6157836914063	35.50797653198243	-1242.859252929688	-428.7962341308595	554.3226928710939	-711.4750366210939	-362.3639221191407	558.4104614257814	-704.9643554687501	-343.9680175781251	584.5590209960939	-713.2590332031251	-310.9393615722657	489.1592712402345	-703.5802001953126	-226.0665588378907	430.6314392089845	-697.6957397460939	-203.1890258789063	408.7568969726564	-807.2222900390627	-252.0419464111329	275.2930297851563	-700.6851806640626	-363.0957641601563	246.5378417968751	-686.4127197265626	-321.2846374511719	224.0800170898438	-688.2888793945314	-325.1554260253907	171.3621063232422	-714.7499389648439	-428.6006164550782	95.20066070556642	-697.5073852539064	-395.913055419922	99.05174255371097	-777.4880371093752	-492.7845153808595	51.4059524536133	-743.8107910156251	-274.9060363769532	52.12468719482423	-735.7799072265626	-276.3636169433594	57.58210754394533	-683.8690795898439	-323.1746826171876	37.15596771240235	-636.8435668945314	-4216.867675781251	853.2276611328127	-3944.770263671876	
1119	5.59	43.69864654541016	1217.913940429688	-924.5664672851565	-137.7959747314453	1169.043701171875	-1003.863159179688	-119.2674942016602	1170.378784179688	-850.1555175781252	-201.5863189697266	1090.80908203125	-932.6641235351565	-434.8717041015626	898.3174438476565	-926.3444824218752	-103.1686325073242	945.9050292968752	-936.6555175781252	-132.4792175292969	1033.577270507813	-1102.3046875	-256.3409729003907	982.8742675781252	-1248.3134765625	-276.4122009277344	938.4776611328127	-1250.102294921875	-309.4481811523438	967.2615356445315	-1291.523071289063	-353.6614074707032	947.265075683594	-1316.901245117188	-421.0900878906251	972.6269531250002	-1258.446533203125	-453.8789367675782	777.7651977539065	-1133.027587890625	-471.6850891113282	729.4191894531251	-1188.9482421875	-427.535125732422	734.7048339843751	-1094.364868164063	-104.4078826904297	1019.302978515625	-770.262634277344	-197.5524291992188	934.322692871094	-585.8129882812501	-193.8823547363282	886.0653076171877	-602.2633666992189	-224.9698791503907	876.177917480469	-554.0272827148439	-257.6504821777344	839.1714477539065	-538.3617553710939	-332.6849365234376	893.5336914062502	-555.7997436523439	-451.9952697753907	761.2490844726564	-698.5587768554689	-427.5496826171876	742.7840576171876	-755.9077758789064	-442.1746215820314	692.0963745117189	-663.6436157226564	-411.0777893066407	665.0910644531251	-1022.025207519531	-415.9162597656251	683.4462890625001	-818.2586059570315	-537.2827148437501	823.0352172851565	-927.6691894531252	-568.1598510742189	812.4426879882815	-954.710388183594	-567.3369750976564	810.6035766601565	-898.6246337890627	-488.0287170410157	580.7899169921876	-1140.4951171875	-403.6049194335939	574.4904785156251	-1153.892456054688	-377.9761962890626	612.7554931640626	-1140.647827148438	-372.4674682617188	522.9400024414064	-1160.863647460938	-220.8239288330079	449.4259643554689	-1176.546875	-197.6309814453126	419.4005737304689	-1071.832397460938	-252.2511596679688	265.2095031738282	-1142.806274414063	-323.9056091308594	256.4485168457032	-1202.50634765625	-289.6050415039063	237.245834350586	-1179.60205078125	-322.3381347656251	162.5775299072266	-1151.998046875	-420.4279174804689	103.0012969970703	-1193.303344726563	-378.5335693359376	101.4795455932617	-1113.148071289063	-484.9368591308595	55.03786468505861	-1160.293334960938	-267.1340942382813	58.77706527709962	-1142.464599609375	-262.9695739746094	57.84414291381837	-1187.80712890625	-305.1964111328126	36.05506134033204	-1242.9287109375	-428.7527770996095	554.2477416992189	-711.4407348632814	-362.2294921875001	558.2028808593751	-705.1524047851564	-343.9555053710938	584.5267944335939	-713.2592163085939	-310.9259033203126	489.1856384277345	-703.6539916992189	-225.9874572753907	430.6143798828126	-697.7456054687501	-203.2146453857422	408.7584838867189	-807.2434082031252	-252.0510406494141	275.3029785156251	-700.6779785156251	-363.1021728515626	246.5356445312501	-686.4021606445314	-321.2122802734376	224.0659637451172	-688.3699340820314	-325.0912475585938	171.362060546875	-714.7676391601564	-428.5901489257814	95.21804046630861	-697.5037841796876	-395.9507446289064	99.03996276855472	-777.5029296875002	-492.8176879882814	51.43462371826173	-743.8214721679689	-274.9261474609376	52.15609741210939	-735.7625122070314	-276.4064636230469	57.62242889404298	-683.8320922851564	-323.1728820800782	37.15202331542969	-636.8470458984376	-4217.037597656251	853.1624145507815	-3944.763916015626	
